<mxfile host="app.diagrams.net" modified="2022-07-19T07:00:05.429Z" agent="5.0 (Windows)" etag="RrpmtmNIjrr7RUo-hvIh" version="20.0.4" type="github">
  <diagram id="jdRbJNzQJf3ULVlRVG2P" name="Page-1">
    <mxGraphModel dx="1497" dy="821" grid="1" gridSize="10" guides="1" tooltips="1" connect="1" arrows="1" fold="1" page="1" pageScale="1" pageWidth="827" pageHeight="1169" math="0" shadow="0">
      <root>
        <mxCell id="0" />
        <mxCell id="1" parent="0" />
        <mxCell id="tpsmDuAzEhyBbQ_yPCMv-1" value="&lt;font style=&quot;font-size: 20px;&quot;&gt;&lt;b&gt;inAppChat Service&lt;/b&gt;&lt;/font&gt;" style="rounded=0;whiteSpace=wrap;html=1;" vertex="1" parent="1">
          <mxGeometry x="130" y="160" width="140" height="60" as="geometry" />
        </mxCell>
        <mxCell id="tpsmDuAzEhyBbQ_yPCMv-2" value="&lt;div style=&quot;font-size: 20px;&quot;&gt;&lt;font style=&quot;font-size: 20px;&quot;&gt;&lt;b&gt;socketConnection Service&lt;/b&gt;&lt;/font&gt;&lt;/div&gt;" style="rounded=0;whiteSpace=wrap;html=1;" vertex="1" parent="1">
          <mxGeometry x="320" y="70" width="250" height="60" as="geometry" />
        </mxCell>
        <mxCell id="tpsmDuAzEhyBbQ_yPCMv-3" value="" style="endArrow=none;dashed=1;html=1;dashPattern=1 3;strokeWidth=2;rounded=0;fontSize=20;" edge="1" parent="1">
          <mxGeometry width="50" height="50" relative="1" as="geometry">
            <mxPoint x="10" y="451" as="sourcePoint" />
            <mxPoint x="810" y="451" as="targetPoint" />
          </mxGeometry>
        </mxCell>
        <mxCell id="tpsmDuAzEhyBbQ_yPCMv-4" value="&lt;font style=&quot;font-size: 15px;&quot;&gt;back-end&lt;/font&gt;" style="text;html=1;align=center;verticalAlign=middle;resizable=0;points=[];autosize=1;strokeColor=none;fillColor=none;fontSize=20;" vertex="1" parent="1">
          <mxGeometry x="40" y="411" width="80" height="40" as="geometry" />
        </mxCell>
        <mxCell id="tpsmDuAzEhyBbQ_yPCMv-6" value="&lt;font style=&quot;font-size: 15px;&quot;&gt;front-end&lt;/font&gt;" style="text;html=1;align=center;verticalAlign=middle;resizable=0;points=[];autosize=1;strokeColor=none;fillColor=none;fontSize=20;" vertex="1" parent="1">
          <mxGeometry x="40" y="451" width="80" height="40" as="geometry" />
        </mxCell>
        <mxCell id="tpsmDuAzEhyBbQ_yPCMv-7" value="Superglu Client" style="rounded=1;whiteSpace=wrap;html=1;fontSize=15;" vertex="1" parent="1">
          <mxGeometry x="320" y="555" width="120" height="60" as="geometry" />
        </mxCell>
        <mxCell id="tpsmDuAzEhyBbQ_yPCMv-8" value="" style="endArrow=classic;startArrow=classic;html=1;rounded=0;fontSize=15;entryX=0.25;entryY=1;entryDx=0;entryDy=0;" edge="1" parent="1" source="tpsmDuAzEhyBbQ_yPCMv-7" target="tpsmDuAzEhyBbQ_yPCMv-1">
          <mxGeometry width="50" height="50" relative="1" as="geometry">
            <mxPoint x="390" y="330" as="sourcePoint" />
            <mxPoint x="440" y="280" as="targetPoint" />
          </mxGeometry>
        </mxCell>
        <mxCell id="tpsmDuAzEhyBbQ_yPCMv-9" value="&lt;div style=&quot;font-size: 18px;&quot;&gt;&lt;font style=&quot;font-size: 18px;&quot;&gt;refreshChat&lt;/font&gt;&lt;/div&gt;" style="rounded=0;whiteSpace=wrap;html=1;" vertex="1" parent="1">
          <mxGeometry x="620" y="210" width="120" height="50" as="geometry" />
        </mxCell>
        <mxCell id="tpsmDuAzEhyBbQ_yPCMv-10" value="" style="endArrow=classic;html=1;rounded=0;fontSize=18;entryX=0.25;entryY=1;entryDx=0;entryDy=0;" edge="1" parent="1" source="tpsmDuAzEhyBbQ_yPCMv-7" target="tpsmDuAzEhyBbQ_yPCMv-2">
          <mxGeometry width="50" height="50" relative="1" as="geometry">
            <mxPoint x="330" y="330" as="sourcePoint" />
            <mxPoint x="380" y="280" as="targetPoint" />
          </mxGeometry>
        </mxCell>
        <mxCell id="tpsmDuAzEhyBbQ_yPCMv-11" value="&lt;div style=&quot;font-size: 14px;&quot;&gt;sendMessage&lt;/div&gt;&lt;div style=&quot;font-size: 14px;&quot;&gt;{&lt;/div&gt;&lt;div style=&quot;font-size: 14px;&quot;&gt;&lt;span style=&quot;white-space: pre; font-size: 14px;&quot;&gt;	&lt;/span&gt;email: &amp;lt;email&amp;gt;,&lt;/div&gt;&lt;div style=&quot;font-size: 14px;&quot;&gt;&lt;span style=&quot;white-space: pre; font-size: 14px;&quot;&gt;	&lt;/span&gt;chatId: &amp;lt;chatId&amp;gt;&lt;br style=&quot;font-size: 14px;&quot;&gt;&lt;/div&gt;&lt;div style=&quot;font-size: 14px;&quot;&gt;}&lt;br style=&quot;font-size: 14px;&quot;&gt;&lt;/div&gt;" style="edgeLabel;html=1;align=left;verticalAlign=middle;resizable=0;points=[];fontSize=14;" vertex="1" connectable="0" parent="tpsmDuAzEhyBbQ_yPCMv-10">
          <mxGeometry x="0.2471" relative="1" as="geometry">
            <mxPoint x="-42" y="-10" as="offset" />
          </mxGeometry>
        </mxCell>
        <mxCell id="tpsmDuAzEhyBbQ_yPCMv-12" value="" style="endArrow=classic;html=1;rounded=0;fontSize=14;entryX=0.5;entryY=0;entryDx=0;entryDy=0;" edge="1" parent="1" source="tpsmDuAzEhyBbQ_yPCMv-2" target="tpsmDuAzEhyBbQ_yPCMv-9">
          <mxGeometry width="50" height="50" relative="1" as="geometry">
            <mxPoint x="390" y="330" as="sourcePoint" />
            <mxPoint x="440" y="280" as="targetPoint" />
          </mxGeometry>
        </mxCell>
        <mxCell id="tpsmDuAzEhyBbQ_yPCMv-13" value="&lt;div&gt;{&lt;/div&gt;&lt;div&gt;&lt;span style=&quot;white-space: pre;&quot;&gt;	&lt;/span&gt;chatId: &amp;lt;chatId&amp;gt;&lt;br&gt;&lt;/div&gt;&lt;div&gt;}&lt;/div&gt;" style="edgeLabel;html=1;align=left;verticalAlign=middle;resizable=0;points=[];fontSize=14;" vertex="1" connectable="0" parent="tpsmDuAzEhyBbQ_yPCMv-12">
          <mxGeometry x="-0.1592" relative="1" as="geometry">
            <mxPoint x="-26" y="6" as="offset" />
          </mxGeometry>
        </mxCell>
        <mxCell id="tpsmDuAzEhyBbQ_yPCMv-14" value="Superglu Client" style="rounded=1;whiteSpace=wrap;html=1;fontSize=15;" vertex="1" parent="1">
          <mxGeometry x="530" y="555" width="120" height="60" as="geometry" />
        </mxCell>
        <mxCell id="tpsmDuAzEhyBbQ_yPCMv-15" value="Superglu Client" style="rounded=1;whiteSpace=wrap;html=1;fontSize=15;" vertex="1" parent="1">
          <mxGeometry x="670" y="555" width="120" height="60" as="geometry" />
        </mxCell>
        <mxCell id="tpsmDuAzEhyBbQ_yPCMv-16" value="chat Participants" style="text;html=1;align=center;verticalAlign=middle;resizable=0;points=[];autosize=1;strokeColor=none;fillColor=none;fontSize=14;fontStyle=1" vertex="1" parent="1">
          <mxGeometry x="510" y="630" width="140" height="30" as="geometry" />
        </mxCell>
        <mxCell id="tpsmDuAzEhyBbQ_yPCMv-23" style="edgeStyle=orthogonalEdgeStyle;rounded=0;orthogonalLoop=1;jettySize=auto;html=1;exitX=0.5;exitY=1;exitDx=0;exitDy=0;entryX=0.5;entryY=0;entryDx=0;entryDy=0;fontSize=13;" edge="1" parent="1" source="tpsmDuAzEhyBbQ_yPCMv-17" target="tpsmDuAzEhyBbQ_yPCMv-14">
          <mxGeometry relative="1" as="geometry" />
        </mxCell>
        <mxCell id="tpsmDuAzEhyBbQ_yPCMv-24" style="edgeStyle=orthogonalEdgeStyle;rounded=0;orthogonalLoop=1;jettySize=auto;html=1;exitX=1;exitY=0.5;exitDx=0;exitDy=0;fontSize=13;" edge="1" parent="1" source="tpsmDuAzEhyBbQ_yPCMv-17" target="tpsmDuAzEhyBbQ_yPCMv-15">
          <mxGeometry relative="1" as="geometry" />
        </mxCell>
        <mxCell id="tpsmDuAzEhyBbQ_yPCMv-25" style="edgeStyle=orthogonalEdgeStyle;rounded=0;orthogonalLoop=1;jettySize=auto;html=1;exitX=0;exitY=0.5;exitDx=0;exitDy=0;entryX=0.75;entryY=0;entryDx=0;entryDy=0;fontSize=13;" edge="1" parent="1" source="tpsmDuAzEhyBbQ_yPCMv-17" target="tpsmDuAzEhyBbQ_yPCMv-7">
          <mxGeometry relative="1" as="geometry">
            <Array as="points">
              <mxPoint x="615" y="380" />
              <mxPoint x="410" y="380" />
            </Array>
          </mxGeometry>
        </mxCell>
        <mxCell id="tpsmDuAzEhyBbQ_yPCMv-17" value="&lt;div style=&quot;font-size: 13px;&quot;&gt;&lt;font style=&quot;font-size: 13px;&quot;&gt;has &lt;br&gt;&lt;/font&gt;&lt;/div&gt;&lt;div style=&quot;font-size: 13px;&quot;&gt;&lt;font style=&quot;font-size: 13px;&quot;&gt;connectionIds&lt;/font&gt;&lt;/div&gt;" style="rhombus;whiteSpace=wrap;html=1;fontSize=14;" vertex="1" parent="1">
          <mxGeometry x="615" y="337" width="130" height="90" as="geometry" />
        </mxCell>
        <mxCell id="tpsmDuAzEhyBbQ_yPCMv-19" value="" style="endArrow=classic;html=1;rounded=0;fontSize=13;entryX=0.5;entryY=0;entryDx=0;entryDy=0;exitX=0.5;exitY=1;exitDx=0;exitDy=0;" edge="1" parent="1" source="tpsmDuAzEhyBbQ_yPCMv-9" target="tpsmDuAzEhyBbQ_yPCMv-17">
          <mxGeometry width="50" height="50" relative="1" as="geometry">
            <mxPoint x="390" y="450" as="sourcePoint" />
            <mxPoint x="440" y="400" as="targetPoint" />
            <Array as="points" />
          </mxGeometry>
        </mxCell>
        <mxCell id="tpsmDuAzEhyBbQ_yPCMv-21" value="[participantUserIds]" style="edgeLabel;html=1;align=center;verticalAlign=middle;resizable=0;points=[];fontSize=13;" vertex="1" connectable="0" parent="tpsmDuAzEhyBbQ_yPCMv-19">
          <mxGeometry x="0.2" y="1" relative="1" as="geometry">
            <mxPoint x="-1" y="-10" as="offset" />
          </mxGeometry>
        </mxCell>
      </root>
    </mxGraphModel>
  </diagram>
</mxfile>
